<?xml version="1.0" encoding="UTF-8" standalone="no"?>
<svg
   xmlns:dc="http://purl.org/dc/elements/1.1/"
   xmlns:cc="http://creativecommons.org/ns#"
   xmlns:rdf="http://www.w3.org/1999/02/22-rdf-syntax-ns#"
   xmlns:svg="http://www.w3.org/2000/svg"
   xmlns="http://www.w3.org/2000/svg"
   xmlns:sodipodi="http://sodipodi.sourceforge.net/DTD/sodipodi-0.dtd"
   xmlns:inkscape="http://www.inkscape.org/namespaces/inkscape"
   width="16"
   height="16"
   fill="currentColor"
   class="bi bi-toggle-on"
   viewBox="0 0 16 16"
   version="1.1"
   id="svg4"
   sodipodi:docname="toggle-on-background.svg"
   inkscape:export-filename="/home/davierb/prog/bevy_debug_menu/assets/toggle-on.png"
   inkscape:export-xdpi="384"
   inkscape:export-ydpi="384"
   inkscape:version="1.0.1 (3bc2e813f5, 2020-09-07)">
  <metadata
     id="metadata10">
    <rdf:RDF>
      <cc:Work
         rdf:about="">
        <dc:format>image/svg+xml</dc:format>
        <dc:type
           rdf:resource="http://purl.org/dc/dcmitype/StillImage" />
        <dc:title></dc:title>
      </cc:Work>
    </rdf:RDF>
  </metadata>
  <defs
     id="defs8" />
  <sodipodi:namedview
     pagecolor="#ffffff"
     bordercolor="#666666"
     borderopacity="1"
     objecttolerance="10"
     gridtolerance="10"
     guidetolerance="10"
     inkscape:pageopacity="0"
     inkscape:pageshadow="2"
     inkscape:window-width="1920"
     inkscape:window-height="1016"
     id="namedview6"
     showgrid="false"
     inkscape:zoom="18.915106"
     inkscape:cx="5.3156128"
     inkscape:cy="3.2561584"
     inkscape:window-x="0"
     inkscape:window-y="27"
     inkscape:window-maximized="1"
     inkscape:current-layer="svg4"
     inkscape:document-rotation="0" />
  <path
     d="m 0,8 c 0,2.761424 2.2386318,5 5.0001247,5 H 11.000274 C 13.761223,12.999229 15.999,10.760878 15.999,7.9999998 15.999,5.2391214 13.761223,3.0007711 11.000274,3 H 5.0001247 C 2.2386318,3 0,5.2385763 0,8 Z"
     id="path862"
     sodipodi:nodetypes="sscscss"
     style="fill:#5959b1;fill-opacity:1;stroke-width:1.00001" />
  <path
     d="M 5,13 A 5,-5 0 0 1 5,3 h 6 a 5,-5 0 0 1 0,10 z m 6,-9 a 4,-4 0 1 0 0,8 4,-4 0 0 0 0,-8 z"
     id="path2"
     style="fill:#cccccc;fill-opacity:1" />
</svg>
